<svg xmlns="http://www.w3.org/2000/svg" viewBox="0 0 25 25" id="celsius"><g data-name="temperature"><path fill="#231f20" d="M12.5,23A10.5,10.5,0,1,1,23,12.5,10.51,10.51,0,0,1,12.5,23Zm0-20A9.5,9.5,0,1,0,22,12.5,9.51,9.51,0,0,0,12.5,3Z"></path><path d="M15.78,13.21l2.32.85a5.46,5.46,0,0,1-.74,2,3.23,3.23,0,0,1-1.25,1.19,3.93,3.93,0,0,1-1.9.41,4.83,4.83,0,0,1-2.29-.49,4,4,0,0,1-1.53-1.73,6.76,6.76,0,0,1-.64-3.15A6.11,6.11,0,0,1,10.88,8.3a4,4,0,0,1,3.21-1.37,3.8,3.8,0,0,1,2.55.79A4.69,4.69,0,0,1,18,10.14l-2.34.63a2.43,2.43,0,0,0-.26-.69,1.67,1.67,0,0,0-.55-.57,1.34,1.34,0,0,0-.72-.19,1.5,1.5,0,0,0-1.38.87,4.37,4.37,0,0,0-.36,2,4.48,4.48,0,0,0,.43,2.35,1.39,1.39,0,0,0,1.22.64,1.33,1.33,0,0,0,1.15-.52A3.51,3.51,0,0,0,15.78,13.21Z"></path><path fill="#231f20" d="M7.93,9.86A1.63,1.63,0,0,1,6.4,8.14,1.63,1.63,0,0,1,7.93,6.43,1.63,1.63,0,0,1,9.45,8.14,1.63,1.63,0,0,1,7.93,9.86Zm0-2.43c-.29,0-.53.32-.53.71s.24.72.53.72.52-.33.52-.72S8.21,7.43,7.93,7.43Z"></path></g></svg>