<svg xmlns="http://www.w3.org/2000/svg" viewBox="0 0 80 80" id="weather"><g data-name="53.cloud"><path d="M22.71 41.07a1 1 0 0 0-1.09-.22 1 1 0 0 0-.54.54.87.87 0 0 0-.08.38 1 1 0 1 0 2 0 1 1 0 0 0-.08-.38A1 1 0 0 0 22.71 41.07zM22.71 44.07a.92.92 0 0 0-.33-.22 1 1 0 0 0-.76 0 .83.83 0 0 0-.33.22 1 1 0 0 0-.29.7 1 1 0 0 0 1.38.93 1 1 0 0 0 .33-.22 1 1 0 0 0 .29-.71.84.84 0 0 0-.08-.38A1 1 0 0 0 22.71 44.07zM22.38 46.85a1 1 0 0 0-.76 0 .91.91 0 0 0-.33.22 1 1 0 0 0-.29.7 1 1 0 0 0 .29.71 1 1 0 0 0 1.42 0 1 1 0 0 0 .21-.32 1 1 0 0 0-.21-1.09A.92.92 0 0 0 22.38 46.85zM22.71 50.07a1 1 0 0 0-1.42 0 1 1 0 0 0-.29.7 1 1 0 0 0 .08.39 1 1 0 0 0 1.3.54 1 1 0 0 0 .33-.22 1 1 0 0 0 .21-.32 1 1 0 0 0 .08-.39 1 1 0 0 0-.29-.7zM21.8 52.79l-.18.06-.18.09-.15.13a1 1 0 0 0-.29.7 1 1 0 0 0 .08.39 1 1 0 0 0 .21.32 1 1 0 0 0 1.42 0 1 1 0 0 0 .29-.71 1 1 0 0 0-1.2-1zM22.38 55.85a1 1 0 0 0-1.09.22 1 1 0 0 0-.29.7 1 1 0 0 0 .29.71 1 1 0 0 0 .33.22 1.08 1.08 0 0 0 .76 0 1 1 0 0 0 .33-.22 1 1 0 0 0 .29-.71 1 1 0 0 0-.29-.7A.92.92 0 0 0 22.38 55.85zM32.71 41.07l-.15-.13-.18-.09-.18-.06a1 1 0 0 0-.58.06.91.91 0 0 0-.33.22 1 1 0 0 0-.29.7 1 1 0 0 0 1.38.93 1 1 0 0 0 .33-.22 1 1 0 0 0 .29-.71 1 1 0 0 0-.08-.38A1 1 0 0 0 32.71 41.07zM32.71 44.07a1 1 0 0 0-1.42 0 1 1 0 0 0-.29.7 1 1 0 0 0 .29.71 1 1 0 0 0 .33.22 1.08 1.08 0 0 0 .76 0 1 1 0 0 0 .33-.22 1 1 0 0 0 .21-.32 1 1 0 0 0 .08-.39 1 1 0 0 0-.29-.7zM32.38 46.85a1 1 0 0 0-.76 0 .91.91 0 0 0-.33.22.61.61 0 0 0-.12.15.56.56 0 0 0-.09.17.7.7 0 0 0-.06.19 1.19 1.19 0 0 0 0 .19 1 1 0 0 0 .29.71 1 1 0 0 0 1.42 0 1 1 0 0 0 .21-.32 1 1 0 0 0-.21-1.09A.92.92 0 0 0 32.38 46.85zM32.38 49.85a1 1 0 0 0-.76 0 .91.91 0 0 0-.33.22 1 1 0 0 0-.29.7 1 1 0 0 0 .08.39 1 1 0 0 0 .21.32 1 1 0 0 0 .33.22 1.08 1.08 0 0 0 .76 0 1 1 0 0 0 .33-.22 1 1 0 0 0 .29-.71 1 1 0 0 0-.62-.92zM32.71 53.07a1 1 0 0 0-1.42 0 1 1 0 0 0-.21 1.09 1 1 0 0 0 .21.32 1 1 0 0 0 1.09.22 1 1 0 0 0 .33-.22 1 1 0 0 0 .21-.32 1 1 0 0 0 .08-.39 1 1 0 0 0-.29-.7zM32.38 55.85a1 1 0 0 0-1.09.22 1 1 0 0 0-.29.7 1 1 0 0 0 .29.71 1 1 0 0 0 .33.22 1.08 1.08 0 0 0 .76 0 1 1 0 0 0 .33-.22 1 1 0 0 0 .29-.71 1 1 0 0 0-.29-.7A.92.92 0 0 0 32.38 55.85zM42.71 41.07a1 1 0 0 0-.9-.28l-.19.06-.18.09-.15.13a1 1 0 0 0 1.09 1.63 1 1 0 0 0 .33-.22 1 1 0 0 0 0-1.41zM42.71 44.07a.92.92 0 0 0-.33-.22 1 1 0 0 0-.76 0 .91.91 0 0 0-.33.22 1 1 0 0 0-.29.7 1 1 0 0 0 .08.39 1 1 0 0 0 .21.32 1 1 0 0 0 .33.22 1.08 1.08 0 0 0 .76 0 1 1 0 0 0 .33-.22 1 1 0 0 0 0-1.41zM41.29 47.07a.63.63 0 0 0-.12.15.55.55 0 0 0-.09.17.72.72 0 0 0-.06.19 1.25 1.25 0 0 0 0 .19 1 1 0 0 0 .29.71 1 1 0 0 0 1.09.22 1 1 0 0 0 .33-.22 1 1 0 0 0 .29-.71 1 1 0 0 0-.29-.7A1 1 0 0 0 41.29 47.07zM41.8 49.79l-.18.06-.18.09-.15.13a1 1 0 0 0-.29.7 1 1 0 0 0 .29.71 1 1 0 0 0 .33.22 1.08 1.08 0 0 0 .76 0 1 1 0 0 0 .33-.22 1 1 0 0 0 .29-.71 1 1 0 0 0-1.2-1zM42.56 52.94l-.18-.09-.19-.06a1 1 0 0 0-1.11 1.37 1 1 0 0 0 .21.32A1 1 0 0 0 43 53.77a1 1 0 0 0-.29-.7zM41.29 56.07a1 1 0 0 0-.29.7 1 1 0 1 0 2 0 1 1 0 0 0-.29-.7A1 1 0 0 0 41.29 56.07zM27.71 41.07a1 1 0 0 0-1.71.7 1 1 0 0 0 1.38.93 1 1 0 0 0 .33-.22 1 1 0 0 0 .29-.71 1 1 0 0 0-.08-.38A1 1 0 0 0 27.71 41.07zM27.71 44.07a1 1 0 0 0-1.42 0 1 1 0 0 0-.29.7 1 1 0 0 0 .08.39 1 1 0 0 0 .21.32 1 1 0 0 0 .33.22 1.08 1.08 0 0 0 .76 0 1 1 0 0 0 .33-.22 1 1 0 0 0 .29-.71 1 1 0 0 0-.29-.7zM27.92 47.39a.56.56 0 0 0-.09-.17 1 1 0 0 0-.12-.15 1 1 0 0 0-1.42 0 1 1 0 0 0-.21 1.09 1 1 0 0 0 .21.32 1 1 0 0 0 1.42 0 1 1 0 0 0 .29-.71 1.25 1.25 0 0 0 0-.19A.72.72 0 0 0 27.92 47.39zM27.56 49.94l-.18-.09-.18-.06a1.31 1.31 0 0 0-.4 0l-.18.06-.18.09-.15.13a1 1 0 0 0-.29.7 1 1 0 0 0 .29.71 1 1 0 0 0 .33.22 1.08 1.08 0 0 0 .76 0 1 1 0 0 0 .33-.22 1 1 0 0 0 .29-.71 1 1 0 0 0-.29-.7zM27.71 53.07a1 1 0 0 0-.33-.22 1 1 0 0 0-.58-.06l-.18.06-.18.09-.15.13a1 1 0 0 0-.29.7 1 1 0 0 0 .29.71 1 1 0 0 0 1.42 0 1 1 0 0 0 .21-.32 1 1 0 0 0 .08-.39 1 1 0 0 0-.08-.38A1 1 0 0 0 27.71 53.07zM27.38 55.85a1 1 0 0 0-1.09.22 1 1 0 0 0-.29.7 1 1 0 0 0 .29.71 1 1 0 0 0 .33.22 1.08 1.08 0 0 0 .76 0 1 1 0 0 0 .33-.22 1 1 0 0 0 .29-.71 1 1 0 0 0-.29-.7A.92.92 0 0 0 27.38 55.85zM37.71 41.07a1 1 0 0 0-1.09-.22.91.91 0 0 0-.33.22 1 1 0 0 0-.21.32.86.86 0 0 0-.08.38 1 1 0 0 0 1.38.93 1 1 0 0 0 .33-.22 1 1 0 0 0 .29-.71 1 1 0 0 0-.08-.38A1 1 0 0 0 37.71 41.07zM37.71 44.07l-.16-.13-.17-.09-.19-.06a1 1 0 0 0-.57.06.84.84 0 0 0-.33.22 1 1 0 0 0-.21.32.83.83 0 0 0-.08.38 1 1 0 0 0 .29.71 1 1 0 0 0 .33.22 1.08 1.08 0 0 0 .76 0 1 1 0 0 0 .33-.22 1 1 0 0 0 .21-.32 1 1 0 0 0 .08-.39 1 1 0 0 0-.29-.7zM37.92 47.39a.57.57 0 0 0-.09-.17.63.63 0 0 0-.12-.15.92.92 0 0 0-.33-.22 1 1 0 0 0-.76 0 .91.91 0 0 0-.33.22 1 1 0 0 0-.21 1.09 1 1 0 0 0 .21.32 1 1 0 0 0 1.09.22 1 1 0 0 0 .33-.22 1 1 0 0 0 .29-.71 1.14 1.14 0 0 0 0-.19A.68.68 0 0 0 37.92 47.39zM37.71 50.07l-.16-.13-.17-.09-.19-.06a.93.93 0 0 0-.57.06.91.91 0 0 0-.33.22 1 1 0 0 0-.21.32 1 1 0 0 0-.08.38 1 1 0 0 0 .08.39 1 1 0 0 0 .21.32 1 1 0 0 0 .33.22A1 1 0 0 0 38 50.77a1 1 0 0 0-.29-.7zM37.71 53.07l-.16-.13-.17-.09-.19-.06a1 1 0 0 0-1.11 1.37 1 1 0 0 0 .21.32.91.91 0 0 0 .33.22.94.94 0 0 0 .76 0 1 1 0 0 0 .33-.22 1 1 0 0 0 0-1.41zM36.29 56.07a1 1 0 0 0-.29.7 1 1 0 0 0 .29.71 1 1 0 0 0 .33.22A1 1 0 0 0 38 56.77a1 1 0 0 0-.29-.7A1 1 0 0 0 36.29 56.07zM46.53 13.25a16.05 16.05 0 0 0-29.08 0 11.56 11.56 0 0 0-1.29-.08 11.92 11.92 0 0 0 0 23.84H47.82a11.91 11.91 0 1 0-1.28-23.75zM9.7 23.78a6.54 6.54 0 0 0-.15 1.38 1.09 1.09 0 1 1-2.19 0 8.7 8.7 0 0 1 .2-1.85 1.09 1.09 0 0 1 2.14.46zm10.45-5.09a1.1 1.1 0 0 1-1.45.55A6.7 6.7 0 0 0 16 18.67a6.48 6.48 0 0 0-5 2.29 1.09 1.09 0 1 1-1.67-1.42A8.72 8.72 0 0 1 19.6 17.24 1.1 1.1 0 0 1 20.15 18.69zm4.79-6.22c-.21.21-.34.36-.47.51a1.09 1.09 0 0 1-1.66-1.43q.24-.28.49-.54l.09-.09a1.09 1.09 0 1 1 1.55 1.55zM36.08 9.16a1.1 1.1 0 0 1-1.35.75 10 10 0 0 0-7.18.67 1.09 1.09 0 0 1-1-2 12.18 12.18 0 0 1 8.76-.82A1.09 1.09 0 0 1 36.08 9.16z"></path></g></svg>