<svg xmlns="http://www.w3.org/2000/svg" enable-background="new 0 0 64 64" viewBox="0 0 64 64" id="rainy-weather"><path fill="#333" d="M43 22c-.9 0-1.8.2-2.7.5C38.9 18.7 35.3 16 31 16c-5.5 0-10 4.5-10 10 0 .1 0 .2 0 .4-.6-.2-1.3-.4-2-.4-3.3 0-6 2.7-6 6s2.7 6 6 6h24c4.4 0 8-3.6 8-8S47.4 22 43 22zM16 49c-.2 0-.4-.1-.6-.2-.5-.3-.6-.9-.3-1.4l4-6c.3-.5.9-.6 1.4-.3.5.3.6.9.3 1.4l-4 6C16.6 48.8 16.3 49 16 49zM22 49c-.2 0-.4-.1-.6-.2-.5-.3-.6-.9-.3-1.4l4-6c.3-.5.9-.6 1.4-.3.5.3.6.9.3 1.4l-4 6C22.6 48.8 22.3 49 22 49zM28 49c-.2 0-.4-.1-.6-.2-.5-.3-.6-.9-.3-1.4l4-6c.3-.5.9-.6 1.4-.3.5.3.6.9.3 1.4l-4 6C28.6 48.8 28.3 49 28 49zM34 49c-.2 0-.4-.1-.6-.2-.5-.3-.6-.9-.3-1.4l4-6c.3-.5.9-.6 1.4-.3.5.3.6.9.3 1.4l-4 6C34.6 48.8 34.3 49 34 49zM40 49c-.2 0-.4-.1-.6-.2-.5-.3-.6-.9-.3-1.4l4-6c.3-.5.9-.6 1.4-.3.5.3.6.9.3 1.4l-4 6C40.6 48.8 40.3 49 40 49z"></path></svg>