<svg xmlns="http://www.w3.org/2000/svg" enable-background="new 0 0 100 100" version="1.0" viewBox="0 0 100 100" id="Temperature"><path d="M83.333,58.955V26.667C83.333,17.464,75.869,10,66.667,10C57.461,10,50,17.464,50,26.667v32.289
	c-2.104,3.167-3.334,6.963-3.334,11.045c0,11.045,8.956,20,20.001,20s20-8.955,20-20C86.667,65.918,85.437,62.122,83.333,58.955z
	 M66.667,83.333c-7.363,0-13.334-5.97-13.334-13.333c0-3.356,1.283-6.39,3.334-8.733v-34.6c0-5.521,4.479-10,10-10
	c5.521,0,10,4.479,10,10v34.6C78.718,63.61,80,66.644,80,70C80,77.363,74.03,83.333,66.667,83.333z" fill="#ffffff" class="color000000 svgShape"></path><path d="M70,64.258v-7.591h-6.667v7.591C61.348,65.413,60,67.542,60,70c0,3.682,2.985,6.667,6.667,6.667s6.666-2.985,6.666-6.667
	C73.333,67.542,71.985,65.413,70,64.258z" fill="#ffffff" class="color000000 svgShape"></path><rect width="23.333" height="6.667" x="13.333" y="70" fill="#ffffff" class="color000000 svgShape"></rect><polygon points="36.666 18.333 28.333 18.333 28.333 10 21.666 10 21.666 18.333 13.333 18.333 13.333 25 21.666 25 21.666 33.333 28.333 33.333 28.333 25 36.666 25" fill="#ffffff" class="color000000 svgShape"></polygon></svg>